<svg width="87" height="28" viewBox="0 0 87 28" fill="none" xmlns="http://www.w3.org/2000/svg">
<path d="M7.65863 16.9735V24.4711C7.65863 25.474 7.89481 26.0344 8.60531 26.115C9.94692 26.3155 10.3419 26.3962 10.3419 26.9172C10.3419 27.5189 9.79011 27.5995 9.07962 27.5995C8.01291 27.5995 7.26369 27.4383 4.97346 27.4383C2.68323 27.4383 2.01339 27.5995 0.987336 27.5995C0.356215 27.5995 0 27.5602 0 26.9585C0 26.4375 0.197467 26.2762 1.42099 26.0756C1.8953 25.995 2.13148 25.5133 2.13148 24.5911V5.10484C2.13148 3.98207 1.73655 3.66156 1.1848 3.58094C0.435589 3.50032 0.040655 3.4197 0.040655 2.8593C0.040655 2.4975 0.276841 2.17698 0.751149 2.17698C1.81786 2.17698 3.47503 2.33822 5.60652 2.33822C7.30435 2.33822 9.07962 2.17698 10.7387 2.17698C15.2398 2.17698 18.3974 4.90427 18.3974 9.79451C18.3974 13.6426 15.7122 16.8103 11.8848 16.8103C10.8181 16.8103 9.98951 16.6491 9.39711 16.4898C8.9228 16.3286 8.52787 16.2893 8.17359 16.2893C7.73994 16.2893 7.66056 16.4505 7.66056 16.9716L7.65863 16.9735ZM7.65863 4.86495V13.4853C7.65863 13.8864 7.69735 14.2463 7.93547 14.5274C8.17165 14.7673 8.60724 14.9679 9.23836 14.9679C11.3311 14.9679 12.7521 13.1235 12.7521 9.55462C12.7521 5.18349 11.0543 3.62026 9.08155 3.62026C7.9374 3.62026 7.66056 4.06072 7.66056 4.86298L7.65863 4.86495Z" fill="#F74C25"/>
<path d="M24.2636 6.78971H24.2248C22.7651 6.78971 21.5416 5.34446 21.5416 3.41746C21.5416 1.49047 22.7632 0 24.2636 0C25.8433 0 27.0262 1.4885 27.0262 3.41746C27.0262 5.34643 25.8414 6.78971 24.2636 6.78971ZM21.6578 24.3509V13.8862C21.6578 12.6434 21.3809 12.3623 20.473 12.1617C19.8012 12.0005 19.6037 11.8412 19.6037 11.4794C19.6037 10.9976 19.9599 10.8777 21.0634 10.5965C22.6025 10.156 24.0235 9.59368 25.3264 9.1139C25.8394 8.91333 26.1956 8.75209 26.3137 8.75209C26.6293 8.75209 26.67 8.99198 26.67 9.63497V24.2703C26.67 25.633 26.7493 25.9141 27.8935 26.2346C28.5653 26.4352 28.7627 26.5158 28.7627 27.0369C28.7627 27.3987 28.5653 27.5993 27.9729 27.5993C26.788 27.5993 25.5645 27.438 24.2229 27.438C22.7225 27.438 21.499 27.5993 20.3936 27.5993C19.8806 27.5993 19.565 27.3987 19.565 26.9976C19.565 26.5571 19.7625 26.3959 20.3142 26.2346C21.499 25.9535 21.6558 25.8335 21.6558 24.3509H21.6578Z" fill="#F74C25"/>
<path d="M45.5589 24.4705V13.8858C45.5589 12.6037 45.3615 12.3619 44.5716 12.2419C43.743 12.0807 43.5455 12.002 43.5455 11.6009C43.5455 10.9992 44.0586 10.9992 45.677 10.5587C47.4542 9.99834 48.519 9.4753 49.1908 9.15479C49.7832 8.91489 50.0194 8.75366 50.1781 8.75366C50.455 8.75366 50.5343 9.2354 50.5343 9.71519V11.1978C50.573 11.6795 50.6137 11.8388 50.7318 11.8388C51.1267 11.8388 51.6785 11.1172 52.5477 10.4349C53.417 9.71322 54.5611 8.99158 56.1002 8.99158C57.6393 8.99158 58.7447 9.47333 59.5733 10.3149C60.4019 11.2371 60.8355 12.5998 60.8355 14.163V24.9483C60.8355 26.1517 61.5867 26.191 62.2178 26.3916C62.6515 26.4722 62.8489 26.5921 62.8489 26.952C62.8489 27.4337 62.5721 27.593 61.7822 27.593C61.1898 27.593 59.8095 27.4317 58.2685 27.4317C56.65 27.4317 55.742 27.593 55.0315 27.593C54.5185 27.593 54.2823 27.4317 54.2823 26.9107C54.2823 26.7494 54.4411 26.5901 54.6773 26.4702C55.2697 26.189 55.8214 26.0298 55.8214 25.3081V14.804C55.8214 14.0431 55.6627 13.3607 55.3471 12.9203C54.9522 12.2793 54.3598 11.9588 53.6106 11.9588C52.8613 11.9588 52.0715 12.1986 51.5178 12.6804C50.9641 13.1621 50.5711 13.8032 50.5711 14.5248V25.2295C50.5711 25.9118 51.0454 26.1517 51.6378 26.4328C52.1508 26.5941 52.2689 26.6334 52.2689 26.9146C52.2689 27.475 51.9534 27.5969 51.5584 27.5969C51.1248 27.5969 50.4917 27.4357 48.2034 27.4357C45.5589 27.4357 45.2434 27.5969 44.4148 27.5969C43.9405 27.5969 43.5862 27.357 43.5862 26.9559C43.5862 26.5154 43.9405 26.3149 44.3761 26.2342C45.4021 26.1143 45.5609 25.6325 45.5609 24.4705H45.5589Z" fill="#F74C25"/>
<path d="M68.312 6.78971H68.2732C66.8135 6.78971 65.5881 5.34446 65.5881 3.41747C65.5881 1.49047 66.8116 0 68.312 0C69.8917 0 71.0746 1.4885 71.0746 3.41747C71.0746 5.34643 69.8898 6.78971 68.312 6.78971ZM65.7062 24.3509V13.8862C65.7062 12.6434 65.4293 12.3623 64.5214 12.1617C63.8496 12.0005 63.6521 11.8412 63.6521 11.4794C63.6521 10.9976 64.0064 10.8777 65.1118 10.5965C66.6509 10.156 68.0719 9.59368 69.3748 9.1139C69.8878 8.91333 70.244 8.75209 70.3621 8.75209C70.6777 8.75209 70.7164 8.99199 70.7164 9.63497V24.2703C70.7164 25.633 70.7958 25.9141 71.9399 26.2347C72.6117 26.4352 72.8092 26.5158 72.8092 27.0369C72.8092 27.3987 72.6117 27.5993 72.0193 27.5993C70.8345 27.5993 69.611 27.438 68.2694 27.438C66.769 27.438 65.5455 27.5993 64.4401 27.5993C63.927 27.5993 63.6115 27.3987 63.6115 26.9976C63.6115 26.5571 63.8089 26.3959 64.3607 26.2347C65.5455 25.9535 65.7023 25.8335 65.7023 24.3509H65.7062Z" fill="#F74C25"/>
<path d="M28.9255 19.0178C28.9255 12.9635 32.7935 8.75366 37.7283 8.75366C39.0312 8.75366 40.5702 9.03484 41.4395 9.67586C42.2294 10.1969 42.3087 10.4368 42.3474 11.4003C42.3862 11.9214 42.3862 12.4425 42.3862 13.0048C42.3862 13.6065 42.3474 14.2082 42.2681 14.5681C42.15 15.4096 41.5169 15.4313 40.8587 15.3959C39.7978 15.3369 39.3061 15.1422 39.1299 13.9998C38.8956 12.4798 38.7388 10.427 37.5695 10.3995C35.833 10.3582 34.2939 13.3273 34.2939 17.4959C34.2939 23.0685 36.2686 25.2334 38.4 25.2334C39.7029 25.2334 40.5315 24.3918 41.1239 23.389C41.5576 22.5867 41.8344 21.7845 42.2293 21.7845C42.6243 21.7845 42.7811 22.1856 42.7811 22.4668C42.7811 24.4724 40.9652 28 36.5841 28C31.8875 28 28.9255 24.3918 28.9255 19.0591V19.0178Z" fill="#F74C25"/>
<path d="M72.8111 19.0178C72.8111 12.9635 76.6791 8.75366 81.6138 8.75366C82.9167 8.75366 84.4558 9.03484 85.3251 9.67586C86.1149 10.1969 86.1943 10.4368 86.233 11.4003C86.2717 11.9214 86.2717 12.4425 86.2717 13.0048C86.2717 13.6065 86.233 14.2082 86.1536 14.5681C86.0355 15.4096 85.4025 15.4313 84.7443 15.3959C83.6834 15.3369 83.1916 15.1422 83.0155 13.9998C82.7812 12.4798 82.6244 10.427 81.4551 10.3995C79.7185 10.3582 78.1795 13.3273 78.1795 17.4959C78.1795 23.0685 80.1541 25.2334 82.2856 25.2334C83.5885 25.2334 84.4171 24.3918 85.0095 23.389C85.4431 22.5867 85.72 21.7845 86.1149 21.7845C86.5099 21.7845 86.6667 22.1856 86.6667 22.4668C86.6667 24.4724 84.8507 28 80.4697 28C75.7731 28 72.8111 24.3918 72.8111 19.0591V19.0178Z" fill="#F74C25"/>
</svg>
