<svg width="93" height="79" viewBox="0 0 93 79" fill="none" xmlns="http://www.w3.org/2000/svg">
<path d="M66.1301 57.5124C80.8604 57.5124 92.8014 45.5714 92.8014 30.8411C92.8014 16.1109 80.8604 4.16992 66.1301 4.16992C51.3998 4.16992 39.4588 16.1109 39.4588 30.8411C39.4588 45.5714 51.3998 57.5124 66.1301 57.5124Z" fill="#F2E191"/>
<path d="M88.2084 40.4148C90.2088 36.6676 91.3538 32.3885 91.3538 27.8411C91.3538 16.8467 84.6937 7.40714 75.2004 3.32652C71.9769 1.93758 68.4184 1.16992 64.6841 1.16992C49.9539 1.16992 38.0128 13.1093 38.0128 27.8411C38.0128 42.573 49.9522 54.5124 64.6841 54.5124C71.8549 54.5124 78.3703 51.6776 83.1616 47.0749" stroke="#F74C25" stroke-width="2.3403" stroke-linecap="round" stroke-linejoin="round"/>
<path d="M38.226 25.9294C47.7974 29.9759 54.5128 39.4594 54.5128 50.4993C54.5128 65.2296 42.5734 77.1706 27.8415 77.1706C13.1095 77.1706 1.17015 65.2312 1.17015 50.4993C1.17015 35.7675 13.1095 23.8281 27.8415 23.8281" fill="white"/>
<path d="M38.226 25.9294C47.7974 29.9759 54.5128 39.4594 54.5128 50.4993C54.5128 65.2296 42.5734 77.1706 27.8415 77.1706C13.1095 77.1706 1.17015 65.2312 1.17015 50.4993C1.17015 35.7675 13.1095 23.8281 27.8415 23.8281" stroke="#F74C25" stroke-width="2.3403" stroke-linecap="round" stroke-linejoin="round"/>
<path d="M15.8583 54.5684C15.2142 59.4036 17.6928 64.3186 22.3394 66.5305C28.1099 69.2758 35.014 66.8411 37.7593 61.0723C38.0374 60.5047 38.2375 59.9159 38.4148 59.3272L15.8583 54.5586V54.57V54.5684Z" fill="#F74C25" stroke="#F74C25" stroke-width="2.3403" stroke-linecap="round" stroke-linejoin="round"/>
<path d="M59.7269 34.5691C61.2833 38.2268 65.0517 40.6274 69.2218 40.2501C74.3921 39.7833 78.2157 35.2131 77.749 30.0445C77.7051 29.5338 77.6042 29.0328 77.4823 28.5547L59.7382 34.5691H59.7269Z" fill="#F74C25" stroke="#F74C25" stroke-width="2.3403" stroke-linecap="round" stroke-linejoin="round"/>
<path d="M13.2442 42.2689C13.4557 40.1449 15.0446 38.2338 17.0793 37.6223C19.1139 37.0108 21.4933 37.7557 22.827 39.413" stroke="#F74C25" stroke-width="2.3403" stroke-linecap="round" stroke-linejoin="round"/>
<path d="M31.2439 36.6947C31.4554 34.5706 33.0444 32.6596 35.079 32.0481C37.1136 31.4366 39.493 32.1815 40.8283 33.8388" stroke="#F74C25" stroke-width="2.3403" stroke-linecap="round" stroke-linejoin="round"/>
<path d="M28.965 41.9824L30.4206 47.4195C32.6992 45.0189 35.5796 43.2055 38.725 42.1727C39.3024 41.984 40.0034 41.8393 40.4701 42.2394C41.015 42.7062 40.8589 43.573 40.6149 44.2512C39.5138 47.33 37.5914 50.1209 35.1226 52.2563" stroke="#F74C25" stroke-width="2.3403" stroke-linecap="round" stroke-linejoin="round"/>
<path d="M70.1457 15.1175C71.4013 13.4944 73.6587 12.7169 75.6494 13.2163C77.6401 13.7172 79.2519 15.4834 79.5739 17.5083" stroke="#F74C25" stroke-width="2.3403" stroke-linecap="round" stroke-linejoin="round"/>
<path d="M51.956 12.0218C53.2116 10.3987 55.469 9.62125 57.4597 10.1205C59.4505 10.6215 61.0622 12.3877 61.3843 14.4126" stroke="#F74C25" stroke-width="2.3403" stroke-linecap="round" stroke-linejoin="round"/>
<path d="M63.7637 17.5195C62.8969 19.4647 62.352 21.566 62.1845 23.6901C60.6508 21.8669 58.5495 20.5885 56.2693 19.8436C54.5681 19.2874 52.8555 20.7772 53.267 22.5223C53.9224 25.3246 55.0788 27.9805 56.8809 30.2607" stroke="#F74C25" stroke-width="2.3403" stroke-linecap="round" stroke-linejoin="round"/>
<path d="M7.81871 23.8275L5.90607 21.248" stroke="#F74C25" stroke-width="2.3403" stroke-linecap="round" stroke-linejoin="round"/>
<path d="M15.9361 19.8701L14.1455 12.8555" stroke="#F74C25" stroke-width="2.3403" stroke-linecap="round" stroke-linejoin="round"/>
<path d="M69.6543 61.2715V64.2738" stroke="#F74C25" stroke-width="2.3403" stroke-linecap="round" stroke-linejoin="round"/>
<path d="M79.8046 58.8379L82.5402 65.0865" stroke="#F74C25" stroke-width="2.3403" stroke-linecap="round" stroke-linejoin="round"/>
<path d="M4.13992 44.2267C7.60903 31.1407 21.0154 23.3373 34.1128 26.8064C47.1988 30.2755 55.0023 43.6819 51.5332 56.7792" stroke="#F2E191" stroke-width="2.3403" stroke-linecap="round" stroke-linejoin="round"/>
<path d="M77.5701 29.0286C75.0248 29.863 72.7349 31.3414 71.1117 33.5305C69.6333 35.531 68.8445 37.8551 68.6428 40.2784C68.8315 40.2784 69.0201 40.2784 69.2104 40.2442C74.3807 39.7775 78.2044 35.2073 77.7377 30.0386C77.7035 29.6938 77.6482 29.349 77.5701 29.0156V29.027V29.0286Z" fill="white" stroke="#F74C25" stroke-width="2.3403" stroke-linecap="round" stroke-linejoin="round"/>
<path d="M31.4878 62.861C34.0901 62.5276 36.2792 61.516 38.1577 60.0701C38.2471 59.8262 38.3252 59.5692 38.4017 59.3252L15.8451 54.5566C15.7785 55.0234 15.7557 55.4902 15.7557 55.957C18.3579 61.3598 25.7385 63.5945 31.4862 62.861H31.4878Z" fill="#F2E191" stroke="#F74C25" stroke-width="2.3403" stroke-linecap="round" stroke-linejoin="round"/>
</svg>
