<svg width="20" height="20" viewBox="0 0 20 20" fill="none" xmlns="http://www.w3.org/2000/svg">
<path d="M9.59961 19.1992C8.27148 19.1992 7.02799 18.9486 5.86914 18.4473C4.7168 17.9525 3.69792 17.2624 2.8125 16.377C1.93359 15.498 1.24349 14.4824 0.742188 13.3301C0.247396 12.1712 0 10.9277 0 9.59961C0 8.27148 0.247396 7.02799 0.742188 5.86914C1.24349 4.71029 1.93359 3.69141 2.8125 2.8125C3.69792 1.93359 4.7168 1.24674 5.86914 0.751953C7.02799 0.250651 8.27148 0 9.59961 0C10.9277 0 12.1712 0.250651 13.3301 0.751953C14.4889 1.24674 15.5078 1.93359 16.3867 2.8125C17.2656 3.69141 17.9525 4.71029 18.4473 5.86914C18.9486 7.02799 19.1992 8.27148 19.1992 9.59961C19.1992 10.9277 18.9486 12.1712 18.4473 13.3301C17.9525 14.4824 17.2656 15.498 16.3867 16.377C15.5078 17.2624 14.4889 17.9525 13.3301 18.4473C12.1712 18.9486 10.9277 19.1992 9.59961 19.1992ZM9.59961 17.1777C10.6478 17.1777 11.6276 16.9792 12.5391 16.582C13.457 16.1914 14.2643 15.651 14.9609 14.9609C15.6576 14.2643 16.2012 13.4603 16.5918 12.5488C16.9824 11.6309 17.1777 10.6478 17.1777 9.59961C17.1777 8.55143 16.9824 7.57161 16.5918 6.66016C16.2012 5.74219 15.6576 4.93815 14.9609 4.24805C14.2643 3.55143 13.457 3.00781 12.5391 2.61719C11.6276 2.22005 10.6478 2.02148 9.59961 2.02148C8.55143 2.02148 7.56836 2.22005 6.65039 2.61719C5.73893 3.00781 4.9349 3.55143 4.23828 4.24805C3.54167 4.93815 2.99805 5.74219 2.60742 6.66016C2.2168 7.57161 2.02148 8.55143 2.02148 9.59961C2.02148 10.6478 2.2168 11.6309 2.60742 12.5488C2.99805 13.4603 3.54167 14.2643 4.23828 14.9609C4.9349 15.651 5.73893 16.1914 6.65039 16.582C7.56836 16.9792 8.55143 17.1777 9.59961 17.1777ZM7.65625 14.3164L5.04883 11.6992C4.74935 11.4062 4.5931 11.1068 4.58008 10.8008C4.56706 10.4948 4.71354 10.1888 5.01953 9.88281L9.38477 5.47852C9.55404 5.30924 9.71354 5.17253 9.86328 5.06836C10.0195 4.95768 10.2344 4.90234 10.5078 4.90234H12.2559C12.4772 4.90234 12.6562 4.94141 12.793 5.01953C12.9362 5.09766 13.0794 5.20833 13.2227 5.35156L14.0527 6.17188C14.2025 6.32161 14.3066 6.4681 14.3652 6.61133C14.4238 6.74805 14.4531 6.92708 14.4531 7.14844V8.84766C14.4531 9.12109 14.3978 9.33594 14.2871 9.49219C14.1829 9.64193 14.0462 9.80143 13.877 9.9707L9.47266 14.3555C9.16667 14.6549 8.86068 14.7982 8.55469 14.7852C8.2487 14.7656 7.94922 14.6094 7.65625 14.3164ZM11.1035 8.25195C11.2467 8.38867 11.416 8.45703 11.6113 8.45703C11.8066 8.45703 11.9759 8.38867 12.1191 8.25195C12.2493 8.10872 12.3145 7.93945 12.3145 7.74414C12.321 7.54232 12.2559 7.3763 12.1191 7.24609C11.9759 7.10286 11.8066 7.03125 11.6113 7.03125C11.416 7.03125 11.25 7.10286 11.1133 7.24609C10.9701 7.38281 10.8984 7.55208 10.8984 7.75391C10.8984 7.94922 10.9668 8.11523 11.1035 8.25195Z" fill="white"/>
</svg>
