<svg width="100" height="32" viewBox="0 0 100 32" fill="none" xmlns="http://www.w3.org/2000/svg">
<path d="M8.75272 19.3983V27.967C8.75272 29.1131 9.02264 29.7535 9.83464 29.8457C11.3679 30.0749 11.8193 30.167 11.8193 30.7626C11.8193 31.4502 11.1887 31.5423 10.3767 31.5423C9.15761 31.5423 8.30136 31.3581 5.68396 31.3581C3.06655 31.3581 2.30102 31.5423 1.12838 31.5423C0.407103 31.5423 0 31.4974 0 30.8097C0 30.2142 0.225677 30.03 1.62399 29.8007C2.16605 29.7086 2.43598 29.158 2.43598 28.1041V5.8341C2.43598 4.55093 1.98463 4.18464 1.35406 4.0925C0.497816 4.00036 0.0464629 3.90823 0.0464629 3.26777C0.0464629 2.85428 0.31639 2.48798 0.858457 2.48798C2.07755 2.48798 3.97147 2.67226 6.40745 2.67226C8.34783 2.67226 10.3767 2.48798 12.2728 2.48798C17.4169 2.48798 21.0255 5.60488 21.0255 11.1937C21.0255 15.5915 17.9568 19.2118 13.5826 19.2118C12.3635 19.2118 11.4166 19.0275 10.7396 18.8455C10.1975 18.6613 9.74614 18.6163 9.34125 18.6163C8.84564 18.6163 8.75493 18.8006 8.75493 19.3961L8.75272 19.3983ZM8.75272 5.55994V15.4118C8.75272 15.8702 8.79697 16.2814 9.06911 16.6028C9.33903 16.877 9.83685 17.1062 10.5581 17.1062C12.9499 17.1062 14.5738 14.9983 14.5738 10.9196C14.5738 5.92399 12.6335 4.13744 10.3789 4.13744C9.07132 4.13744 8.75493 4.64082 8.75493 5.55769L8.75272 5.55994Z" fill="#FFFFFC"/>
<path d="M27.7298 7.75966H27.6855C26.0173 7.75966 24.619 6.10795 24.619 3.90567C24.619 1.70339 26.0151 0 27.7298 0C29.5352 0 30.8871 1.70115 30.8871 3.90567C30.8871 6.1102 29.533 7.75966 27.7298 7.75966ZM24.7517 27.8296V15.8699C24.7517 14.4496 24.4354 14.1283 23.3977 13.8991C22.6299 13.7148 22.4043 13.5328 22.4043 13.1193C22.4043 12.5687 22.8114 12.4316 24.0725 12.1103C25.8315 11.6069 27.4554 10.9642 28.9445 10.4159C29.5308 10.1867 29.9379 10.0024 30.0728 10.0024C30.4335 10.0024 30.4799 10.2766 30.4799 11.0114V27.7375C30.4799 29.2948 30.5707 29.6162 31.8783 29.9825C32.646 30.2117 32.8717 30.3038 32.8717 30.8993C32.8717 31.3128 32.646 31.542 31.969 31.542C30.6149 31.542 29.2166 31.3578 27.6833 31.3578C25.9686 31.3578 24.5703 31.542 23.307 31.542C22.7207 31.542 22.36 31.3128 22.36 30.8544C22.36 30.351 22.5857 30.1667 23.2163 29.9825C24.5703 29.6611 24.7495 29.524 24.7495 27.8296H24.7517Z" fill="#FFFFFC"/>
<path d="M52.0674 27.9662V15.8694C52.0674 14.4042 51.8417 14.1278 50.939 13.9908C49.992 13.8065 49.7663 13.7166 49.7663 13.2582C49.7663 12.5705 50.3526 12.5705 52.2023 12.0671C54.2334 11.4267 55.4503 10.8289 56.218 10.4626C56.8951 10.1885 57.165 10.0042 57.3464 10.0042C57.6628 10.0042 57.7535 10.5547 57.7535 11.1031V12.7975C57.7978 13.348 57.8442 13.5301 57.9792 13.5301C58.4305 13.5301 59.0611 12.7053 60.0545 11.9256C61.048 11.1008 62.3555 10.2761 64.1145 10.2761C65.8734 10.2761 67.1368 10.8267 68.0838 11.7885C69.0307 12.8424 69.5263 14.3997 69.5263 16.1863V28.5123C69.5263 29.8876 70.3848 29.9326 71.1061 30.1618C71.6017 30.2539 71.8273 30.391 71.8273 30.8022C71.8273 31.3528 71.5109 31.5348 70.6082 31.5348C69.9312 31.5348 68.3537 31.3506 66.5925 31.3506C64.7429 31.3506 63.7052 31.5348 62.8932 31.5348C62.3069 31.5348 62.037 31.3506 62.037 30.755C62.037 30.5708 62.2184 30.3887 62.4883 30.2517C63.1653 29.9303 63.7959 29.7483 63.7959 28.9236V16.9189C63.7959 16.0492 63.6145 15.2694 63.2538 14.766C62.8025 14.0334 62.1255 13.6672 61.2692 13.6672C60.413 13.6672 59.5103 13.9413 58.8775 14.4919C58.2447 15.0425 57.7956 15.775 57.7956 16.5998V28.8337C57.7956 29.6134 58.3376 29.8876 59.0147 30.209C59.601 30.3932 59.7359 30.4382 59.7359 30.7595C59.7359 31.4 59.3753 31.5393 58.9239 31.5393C58.4283 31.5393 57.7048 31.355 55.0896 31.355C52.0674 31.355 51.7067 31.5393 50.7598 31.5393C50.2177 31.5393 49.8128 31.2652 49.8128 30.8067C49.8128 30.3033 50.2177 30.0741 50.7155 29.982C51.8881 29.8449 52.0696 29.2943 52.0696 27.9662H52.0674Z" fill="#FFFFFC"/>
<path d="M78.0708 7.75966H78.0266C76.3583 7.75966 74.9578 6.10795 74.9578 3.90567C74.9578 1.7034 76.3561 0 78.0708 0C79.8762 0 81.2281 1.70115 81.2281 3.90567C81.2281 6.1102 79.874 7.75966 78.0708 7.75966ZM75.0928 27.8296V15.8699C75.0928 14.4496 74.7764 14.1283 73.7387 13.8991C72.971 13.7148 72.7453 13.5328 72.7453 13.1193C72.7453 12.5687 73.1502 12.4316 74.4135 12.1103C76.1725 11.6069 77.7965 10.9642 79.2855 10.4159C79.8718 10.1867 80.2789 10.0024 80.4139 10.0024C80.7745 10.0024 80.8188 10.2766 80.8188 11.0114V27.7375C80.8188 29.2948 80.9095 29.6162 82.2171 29.9825C82.9848 30.2117 83.2105 30.3038 83.2105 30.8993C83.2105 31.3128 82.9848 31.542 82.3078 31.542C80.9537 31.542 79.5554 31.3578 78.0221 31.3578C76.3074 31.3578 74.9091 31.542 73.6458 31.542C73.0595 31.542 72.6988 31.3128 72.6988 30.8544C72.6988 30.351 72.9245 30.1667 73.5551 29.9825C74.9091 29.6611 75.0883 29.524 75.0883 27.8296H75.0928Z" fill="#FFFFFC"/>
<path d="M33.0577 21.7347C33.0577 14.8155 37.4783 10.0042 43.118 10.0042C44.607 10.0042 46.366 10.3255 47.3594 11.0581C48.2621 11.6536 48.3528 11.9278 48.3971 13.0289C48.4413 13.6245 48.4413 14.22 48.4413 14.8627C48.4413 15.5503 48.3971 16.238 48.3064 16.6492C48.1714 17.611 47.4479 17.6357 46.6957 17.5953C45.4832 17.5279 44.9212 17.3054 44.7199 15.9998C44.4522 14.2627 44.2729 11.9166 42.9366 11.8851C40.952 11.8379 39.193 15.2312 39.193 19.9953C39.193 26.364 41.4498 28.8382 43.8858 28.8382C45.3748 28.8382 46.3217 27.8763 46.9988 26.7303C47.4944 25.8134 47.8108 24.8965 48.2621 24.8965C48.7135 24.8965 48.8927 25.355 48.8927 25.6763C48.8927 27.9685 46.8173 32 41.8104 32C36.4428 32 33.0577 27.8763 33.0577 21.7819V21.7347Z" fill="#FFFFFC"/>
<path d="M83.2126 21.7347C83.2126 14.8155 87.6332 10.0042 93.2729 10.0042C94.762 10.0042 96.5209 10.3255 97.5143 11.0581C98.417 11.6536 98.5078 11.9278 98.552 13.0289C98.5963 13.6245 98.5963 14.22 98.5963 14.8627C98.5963 15.5503 98.552 16.238 98.4613 16.6492C98.3263 17.611 97.6028 17.6357 96.8506 17.5953C95.6381 17.5279 95.0761 17.3054 94.8748 15.9998C94.6071 14.2627 94.4279 11.9166 93.0915 11.8851C91.1069 11.8379 89.3479 15.2312 89.3479 19.9953C89.3479 26.364 91.6047 28.8382 94.0407 28.8382C95.5297 28.8382 96.4767 27.8763 97.1537 26.7303C97.6493 25.8134 97.9657 24.8965 98.4171 24.8965C98.8684 24.8965 99.0476 25.355 99.0476 25.6763C99.0476 27.9685 96.9723 32 91.9653 32C86.5978 32 83.2126 27.8763 83.2126 21.7819V21.7347Z" fill="#FFFFFC"/>
</svg>
