<svg width="29" height="14" viewBox="0 0 29 14" fill="none" xmlns="http://www.w3.org/2000/svg">
<path d="M21.8915 5.38579V0.667384C21.8915 0.299854 21.5742 0 21.1846 0H14.9026C14.5143 0 14.1956 0.301021 14.1956 0.667384V5.38929C14.1956 6.12669 13.5634 6.72523 12.783 6.72523H9.11235C8.33193 6.72523 7.69962 6.12785 7.69962 5.38929V0.674392C7.69588 0.303361 7.38223 0.00700741 6.98891 0.00700741H0.707004C0.318662 0.00700741 0 0.304528 0 0.674392V6.61089C0 6.97842 0.317417 7.27827 0.707004 7.27827H5.69943C6.47985 7.27827 7.11216 7.87565 7.11216 8.61421V13.3326C7.11216 13.7001 7.42952 14 7.8191 14H14.1011C14.4894 14 14.8081 13.699 14.8081 13.3326V8.61071C14.8081 7.87331 15.4403 7.27477 16.2207 7.27477H19.8914C20.6718 7.27477 21.3041 7.87215 21.3041 8.61071V13.3291C21.3041 13.6966 21.6214 13.9965 22.011 13.9965H28.293C28.6813 13.9965 29 13.6955 29 13.3291V7.38911C29 7.02158 28.6826 6.72173 28.293 6.72173H23.3006C22.5202 6.72173 21.8878 6.12435 21.8878 5.38579H21.8915Z" fill="#F74C25"/>
</svg>
