<svg width="37" height="18" viewBox="0 0 37 18" fill="none" xmlns="http://www.w3.org/2000/svg">
<path d="M27.9306 6.92459V0.858065C27.9306 0.385527 27.5257 0 27.0286 0H19.0137C18.5182 0 18.1117 0.387027 18.1117 0.858065V6.92909C18.1117 7.87717 17.305 8.64672 16.3093 8.64672H11.6261C10.6304 8.64672 9.82365 7.87867 9.82365 6.92909V0.867075C9.81889 0.390036 9.41871 0.00900952 8.91688 0.00900952H0.90204C0.406569 0.00900952 0 0.391536 0 0.867075V8.49972C0 8.97225 0.40498 9.35778 0.90204 9.35778H7.27168C8.26739 9.35778 9.07414 10.1258 9.07414 11.0754V17.1419C9.07414 17.6144 9.47904 18 9.9761 18H17.991C18.4865 18 18.8931 17.6129 18.8931 17.1419V11.0709C18.8931 10.1228 19.6997 9.35328 20.6954 9.35328H25.3786C26.3743 9.35328 27.1811 10.1213 27.1811 11.0709V17.1374C27.1811 17.61 27.586 17.9955 28.083 17.9955H36.098C36.5934 17.9955 37 17.6085 37 17.1374V9.50028C37 9.02775 36.595 8.64222 36.098 8.64222H29.7283C28.7326 8.64222 27.9259 7.87416 27.9259 6.92459H27.9306Z" fill="#FFFEFB"/>
</svg>
