<svg width="25" height="26" viewBox="0 0 25 26" fill="none" xmlns="http://www.w3.org/2000/svg">
<path d="M14.0708 11.8486C13.8643 12.0719 13.8053 12.2813 13.8938 12.4767C13.9823 12.6441 14.2183 12.7279 14.6018 12.7279C15.4277 12.7279 16.0177 12.3092 16.3717 11.4718C16.7257 10.6345 17.0796 9.72732 17.4336 8.7504C17.7876 7.74557 18.2596 6.82448 18.8496 5.98712C19.469 5.14976 20.4277 4.73108 21.7257 4.73108C22.7286 4.73108 23.5251 5.06602 24.115 5.73591C24.705 6.4058 25 7.21524 25 8.16425C25 9.14117 24.7345 9.97853 24.2035 10.6763C23.6726 11.3741 22.9941 11.9463 22.1681 12.3929C21.3422 12.8116 20.413 13.1186 19.3805 13.314C18.3481 13.5094 17.3304 13.5931 16.3274 13.5652C15.531 13.5373 15 13.5373 14.7345 13.5652C14.469 13.5652 14.2773 13.5792 14.1593 13.6071C14.0413 13.635 13.9381 13.6908 13.8496 13.7746C13.7906 13.8583 13.7463 13.9141 13.7168 13.942C13.6873 14.0537 13.7021 14.1932 13.7611 14.3607C13.8496 14.5282 14.0118 14.6538 14.2478 14.7375C14.5428 14.9329 14.9263 15.0306 15.3982 15.0306C15.8702 15.0027 16.4012 14.9469 16.9912 14.8631C17.5811 14.7515 18.2006 14.6398 18.8496 14.5282C19.528 14.3886 20.2065 14.3188 20.885 14.3188C22.0944 14.3188 23.0826 14.598 23.8496 15.1562C24.6165 15.6865 25 16.5099 25 17.6264C25 18.5475 24.6313 19.329 23.8938 19.971C23.1858 20.5851 22.1976 20.8921 20.9292 20.8921C19.8968 20.8921 18.9676 20.7107 18.1416 20.3478C17.3156 19.9571 16.5929 19.4826 15.9735 18.9243C15.354 18.3661 14.823 17.766 14.3805 17.124C13.9381 16.482 13.5841 15.8959 13.3186 15.3655C13.1121 15.0306 12.9351 14.8213 12.7876 14.7375C12.6401 14.6538 12.5074 14.6119 12.3894 14.6119C12.2714 14.6119 12.1534 14.6398 12.0354 14.6957C11.9469 14.7515 11.8879 14.8631 11.8584 15.0306C11.5634 15.5888 11.6372 16.1471 12.0796 16.7053C12.5516 17.2636 13.1121 17.8497 13.7611 18.4638C14.41 19.0499 15.0295 19.6779 15.6195 20.3478C16.2389 21.0177 16.5487 21.7574 16.5487 22.5668C16.5487 23.4879 16.2094 24.2974 15.531 24.9952C14.882 25.6651 13.8791 26 12.5221 26C11.1357 26 10.0885 25.5813 9.38053 24.744C8.67257 23.9066 8.31858 22.7901 8.31858 21.3945C8.31858 20.1943 8.56932 18.9941 9.0708 17.7939C9.60177 16.5937 10.2507 15.5051 11.0177 14.5282C11.1947 14.2491 11.2389 13.9979 11.1504 13.7746C11.0619 13.5513 10.826 13.4396 10.4425 13.4396C9.61652 13.4396 9.02655 13.8583 8.67257 14.6957C8.31858 15.5051 7.9646 16.3983 7.61062 17.3752C7.25664 18.3521 6.76991 19.2593 6.15044 20.0966C5.56047 20.9061 4.61652 21.3108 3.31858 21.3108C2.31563 21.3108 1.51917 20.9898 0.929204 20.3478C0.339233 19.6779 0.0442478 18.8685 0.0442478 17.9195C0.0442478 16.9426 0.309735 16.1052 0.840708 15.4074C1.37168 14.7096 2.05015 14.1514 2.87611 13.7327C3.70207 13.2861 4.61652 12.9651 5.61947 12.7697C6.65192 12.5743 7.66962 12.4906 8.67257 12.5185C9.49853 12.5464 10.0442 12.5604 10.3097 12.5604C10.5752 12.5325 10.767 12.5046 10.885 12.4767C11.003 12.4487 11.0914 12.3929 11.1504 12.3092C11.2389 12.2254 11.2979 12.1696 11.3274 12.1417C11.3569 12.0301 11.3274 11.8905 11.2389 11.723C11.1799 11.5556 11.0324 11.43 10.7965 11.3462C10.5015 11.1508 10.118 11.0671 9.64602 11.095C9.17404 11.095 8.64307 11.1508 8.0531 11.2625C7.46313 11.3462 6.82891 11.4579 6.15044 11.5974C5.50147 11.7091 4.83776 11.7649 4.15929 11.7649C2.94985 11.7649 1.9469 11.4997 1.15044 10.9694C0.383481 10.4112 0 9.57381 0 8.45733C0 7.53623 0.368732 6.7547 1.10619 6.11272C1.84366 5.47075 2.84661 5.14976 4.11504 5.14976C5.17699 5.14976 6.12094 5.34514 6.9469 5.73591C7.77286 6.09877 8.49558 6.55931 9.11504 7.11755C9.76401 7.67579 10.3097 8.28985 10.7522 8.95974C11.1947 9.60172 11.5634 10.1879 11.8584 10.7182C12.0354 11.0531 12.1976 11.2625 12.3451 11.3462C12.5221 11.43 12.6696 11.4718 12.7876 11.4718C12.8761 11.4718 12.9646 11.4439 13.0531 11.3881C13.1711 11.3323 13.2448 11.2206 13.2743 11.0531C13.5693 10.467 13.4956 9.89479 13.0531 9.33655C12.6401 8.77832 12.1091 8.20612 11.4602 7.61997C10.8407 7.0059 10.236 6.36393 9.64602 5.69404C9.05605 4.99624 8.76106 4.24262 8.76106 3.43317C8.76106 2.51208 9.08555 1.71659 9.73451 1.0467C10.3835 0.3489 11.3864 0 12.7434 0C14.1003 0 15.118 0.41868 15.7965 1.25604C16.4749 2.0934 16.8142 3.19592 16.8142 4.56361C16.8142 5.84756 16.5634 7.14546 16.0619 8.45733C15.5605 9.74128 14.8968 10.8717 14.0708 11.8486Z" fill="#F74C25"/>
</svg>
